# xmcd
#
# Track frame offsets:
#	150
#	2327
#	15327
#	28968
#	42570
#	57938
#	75627
#	88875
#
# Disc length: 1440 seconds
#
# Revision: 1
# Processed by: cddbd v1.5.2PL0 Copyright (c) Steve Scherf et al.
# Submitted via: audiograbber 1.83.01
#
DISCID=57059e08
DTITLE=Ashley McBryde - jalopies and expensive guitars
DYEAR=2016
DGENRE=Country
TTITLE0=Intro
TTITLE1=Redemption
TTITLE2=Lookin' for a Buzz
TTITLE3=Better on the Water
TTITLE4=What If we don't
TTITLE5=Bible and a .44
TTITLE6=Fat and Famoux
TTITLE7=Luckiest S.O.B.
EXTD=
EXTT0=
EXTT1=
EXTT2=
EXTT3=
EXTT4=
EXTT5=
EXTT6=
EXTT7=
PLAYORDER=
